# xmcd
#
# Track frame offsets:
#	150
#	20473
#	43163
#	59764
#	77615
#	96898
#	122152
#	140350
#	161042
#	177476
#	201945
#	214214
#	232268
#
# Disc length: 3367 seconds
#
# Revision: 0
# Processed by: cddbd v1.5.1PL2 Copyright (c) Steve Scherf et al.
# Submitted via: EasyCDDAExtractor 8.1.2.3
#
DISCID=c40d250d
DTITLE=Wu-Tang Clan - The W
DYEAR=2000
DGENRE=Rap
TTITLE0=Intro (Shaolin Finger Jab)/Cha
TTITLE1=Careful (Click, Click)
TTITLE2=Hollow Bones
TTITLE3=Redbull (featuring Redman)
TTITLE4=One Blood Under W (featuring J
TTITLE5=Conditioner (featuring Snoop D
TTITLE6=Protect Ya Neck (The Jump Off)
TTITLE7=Let My Niggas Live (featuring
TTITLE8=I Can't Go To Sleep (featuring
TTITLE9=Do You Really (Thang, Thang)
TTITLE10=The Monument (featuring Busta
TTITLE11=Gravel Pit
TTITLE12=Jah World (featuring Junior Re
EXTD=
EXTT0=
EXTT1=
EXTT2=
EXTT3=
EXTT4=
EXTT5=
EXTT6=
EXTT7=
EXTT8=
EXTT9=
EXTT10=
EXTT11=
EXTT12=
PLAYORDER=
